<svg width="511" height="511" viewBox="0 0 441 567" fill="none" xmlns="http://www.w3.org/2000/svg">
<path d="M80.1076 380.624C93.5507 401.55 122.439 403.141 139.608 400.041C147.556 428.946 168.838 434.763 189.608 431.797M80.1076 380.624C74.7589 372.298 71.8552 360.911 73.1076 345.541C48.7743 340.874 7.40757 319.441 36.6076 271.041C15.7743 255.374 -13.3924 214.841 36.6076 178.041C23.9409 156.374 12.7076 110.841 69.1076 102.041C68.7743 77.7075 82.4076 32.8408 139.608 48.0408C148.108 24.2075 177.308 -13.4592 226.108 26.5408C243.441 13.3742 282.908 -0.759182 302.108 48.0408C323.608 40.7075 368.008 41.2408 373.608 102.041C395.274 107.207 432.108 129.641 406.108 178.041C425.441 189.541 452.508 224.241 406.108 271.041C414.608 289.374 420.008 328.841 373.608 340.041C372.241 349.086 368.481 361.374 361.5 372.541M80.1076 380.624L19.1076 481.041C10.4409 489.707 1.80757 506.741 36.6076 505.541L73.1076 498.541L93.6076 547.541C97.9409 554.874 109.908 565.141 123.108 547.541L189.608 431.797M189.608 431.797C203.328 429.837 216.825 424.044 226.108 418.541C237.107 425.91 247.149 429.139 256.108 429.586M256.108 429.586C279.729 430.764 295.824 412.608 302.108 400.041C331.853 404.673 350.601 389.973 361.5 372.541M256.108 429.586L320.608 547.541C327.274 554.874 342.308 565.141 349.108 547.541L365.608 498.541L415.608 505.541C423.608 507.374 437.208 505.041 427.608 481.041L361.5 372.541" stroke="#5A189A" stroke-width="18"/>
<circle cx="220.5" cy="221.5" r="137.5" stroke="#5A189A" stroke-width="16"/>
<path d="M193.718 220.977C178.718 209 175.718 220.144 178.718 230.477L209.718 262.977C222.518 271.777 232.051 266.644 235.218 262.977L280.218 192.477C287.018 169.677 271.385 173.977 262.718 178.977L219.218 243.977L193.718 220.977Z" fill="#5A189A" stroke="#5A189A" stroke-width="2"/>
</svg>
