<svg width="511" height="513" viewBox="0 0 511 513" fill="none" xmlns="http://www.w3.org/2000/svg">
<path d="M216 425V461.5M302.162 461.5C302.17 470.723 301.999 479.007 301.5 483.5C300.3 494.3 285.667 501.333 278.5 503.5H250C220.8 504.3 215.167 490.5 216 483.5V461.5M302.162 461.5C302.152 448.555 301.792 433.759 301.5 425L302.162 461.5ZM302.162 461.5H216" stroke="rgb(209 213 219)" stroke-width="18"/>
<path d="M257 380.5V401" stroke="rgb(209 213 219)" stroke-width="18"/>
<path d="M377 384.5V444" stroke="rgb(209 213 219)" stroke-width="18"/>
<path d="M408.5 369.5L455.5 409" stroke="rgb(209 213 219)" stroke-width="18"/>
<path d="M419 326.5H474.5" stroke="rgb(209 213 219)" stroke-width="18"/>
<path d="M200 357.5L170 386L156.5 375C149 368.833 133.4 362.4 131 386V406H93L87.5 379C87 372.333 83.3 360.6 72.5 367L52.5 386L25.5 357.5L39 340C43.5 333.833 47.1 321.7 25.5 322.5H9V284.5L32 279C36.6667 278 44.6 272.5 39 258.5L25.5 240L52.5 215.5L72.5 230.5C75.6667 231.833 83.1 230.7 87.5 215.5L93 196.5H101" stroke="rgb(209 213 219)" stroke-width="18"/>
<path d="M12 158.5L77 142.5" stroke="rgb(209 213 219)" stroke-width="18"/>
<path d="M25.5 54.5L82 97.5" stroke="rgb(209 213 219)" stroke-width="18"/>
<path d="M102.5 8.5L117.5 65" stroke="rgb(209 213 219)" stroke-width="18"/>
<path d="M263.5 57L304 28.5L320.5 57C340.1 69 353 52 357 42V11L407 19V57C412.6 74.2 425.667 72.5 431.5 69.5L458.5 49L492 85.5L466.5 110C446.1 124 458 133.833 466.5 137L500.5 145L492 198L466.5 191C446.1 193 444.333 207.167 446 214L466.5 245L423 279L407 252C390.6 230.4 377.5 246.667 373 257.5L369 287L320.5 279V252C324.9 224 306 228.667 296 234.5L271.5 252L243 214L263.5 198C277.5 177.6 269.333 165.833 263.5 162.5L224.5 152L232.5 110H263.5C286.3 109.2 286.667 93.3333 284 85.5L263.5 57Z" stroke="rgb(209 213 219)" stroke-width="18"/>
<path d="M110.5 257.5C99.6667 257.167 75.6 263.2 66 290C62.6667 301.333 63.1 327.5 91.5 341.5C101.833 345 125.5 347.7 137.5 330.5C140.667 329 147 321.7 147 304.5" stroke="rgb(209 213 219)" stroke-width="18"/>
<path d="M417 149.5C417 179.804 393.069 204 364 204C334.931 204 311 179.804 311 149.5C311 119.196 334.931 95 364 95C393.069 95 417 119.196 417 149.5Z" stroke="rgb(209 213 219)" stroke-width="18"/>
<path d="M357 315.5C339.833 321.333 307.4 343.3 315 384.5C316.833 399.833 313.7 428.9 286.5 422.5H223C210.833 423.833 189.2 418.1 200 384.5C201.667 369.667 193.4 333.5 147 307.5C121.167 281.667 78.5 211.1 114.5 135.5C125.5 113.833 158 68.1 200 58.5C217.167 52.6667 255 44.5 269 58.5" stroke="rgb(209 213 219)" stroke-width="18"/>
<path d="M197 110C176.667 123 138.2 160.1 147 204.5C158 260 172.5 267 189 284.5C205.5 302 249 300.5 257 357.5" stroke="rgb(209 213 219)" stroke-width="18"/>
</svg>
