<svg width="511" height="511" viewBox="0 0 986 1020" fill="none" xmlns="http://www.w3.org/2000/svg">
<path d="M474 763L446 802" stroke="#5A189A" stroke-width="18"/>
<path d="M908 124L778 313" stroke="#5A189A" stroke-width="18"/>
<path d="M339 356H536" stroke="#5A189A" stroke-width="18"/>
<path d="M336 506H479" stroke="#5A189A" stroke-width="18"/>
<path d="M336 662H404" stroke="#5A189A" stroke-width="18"/>
<path d="M194.863 115C193.498 117.203 192.558 119.263 192 121V196M194.863 115C200.834 105.365 214.955 93 241 93H297C322.667 30.3333 391.2 -57.4 460 93H530C541.882 91.3025 563.705 94.0711 569.546 115M194.863 115H60C42 116 6.79999 127.6 9.99999 166V961C11.6667 978.333 24.2 1012.4 61 1010H693C711.667 1011.33 749.6 1004.2 752 965V477M752 477L775 436M752 477L636.774 619M664 365L775 436M664 365L745 246.173M664 365L640.854 404M775 436L976 145C986.4 19.4 903.667 46.6667 861 76L745 246.173M569.546 115C570.588 118.73 571.121 123.038 571 128V196M569.546 115H691C709.333 115.667 745.8 124.8 745 156V230V246.173M571 196V204V230H192V196M571 196H621C626.333 195 636.6 199 635 223L640.854 404M640.854 404L445 734L511 774L636.774 619M636.774 619V869C635.516 878 630.2 894.2 619 887H143C134 887.667 116.8 882.6 120 857V214C119 208 121.8 196 141 196H192M194 354L222 387L262 322" stroke="#5A189A" stroke-width="18"/>
<path d="M202 652L230 685L270 620" stroke="#5A189A" stroke-width="18"/>
<path d="M202 497L230 530L270 465" stroke="#5A189A" stroke-width="18"/>
<ellipse cx="193.5" cy="353.5" rx="8.5" ry="9.5" fill="#5A189A"/>
<ellipse cx="336.5" cy="506" rx="8.5" ry="9" fill="#5A189A"/>
<ellipse cx="778.5" cy="313" rx="8.5" ry="9" fill="#5A189A"/>
<ellipse cx="445.5" cy="802" rx="8.5" ry="9" fill="#5A189A"/>
<ellipse cx="908.5" cy="124" rx="8.5" ry="9" fill="#5A189A"/>
<ellipse cx="404.5" cy="662" rx="8.5" ry="9" fill="#5A189A"/>
<ellipse cx="336.5" cy="662" rx="8.5" ry="9" fill="#5A189A"/>
<ellipse cx="536.5" cy="356" rx="8.5" ry="9" fill="#5A189A"/>
<ellipse cx="479.5" cy="506" rx="8.5" ry="9" fill="#5A189A"/>
<ellipse cx="339.5" cy="356" rx="8.5" ry="9" fill="#5A189A"/>
<ellipse cx="261.5" cy="322.5" rx="8.5" ry="9.5" fill="#5A189A"/>
<ellipse cx="202.5" cy="652.5" rx="8.5" ry="9.5" fill="#5A189A"/>
<ellipse cx="202.5" cy="497.5" rx="8.5" ry="9.5" fill="#5A189A"/>
<ellipse cx="270.5" cy="619.5" rx="8.5" ry="9.5" fill="#5A189A"/>
<ellipse cx="270.5" cy="465.5" rx="8.5" ry="9.5" fill="#5A189A"/>
</svg>
